{"title":"A Clockwork Orange (1971) BRrip - HDrendy Dolby Surround [Greek ","uid":6363717,"size":840251792,"categoryP":"video","categoryS":"movies","magnet":"?xt=urn:btih:9064d9b463bca4f6a5772ff4ef0c36834cf55631&amp;dn=A+Clockwork+Orange+%281971%29+BRrip+-+HDrendy+Dolby+Surround+%5BGreek+&amp;tr=udp%3A%2F%2Ftracker.openbittorrent.com%3A80&amp;tr=udp%3A%2F%2Fopen.demonii.com%3A1337&amp;tr=udp%3A%2F%2Ftracker.coppersurfer.tk%3A6969&amp;tr=udp%3A%2F%2Fexodus.desync.com%3A6969","seeders":1,"leechers":0,"uploader":"OmifastGR","files":-1,"time":1304429296,"description":"-------------------------------------------------\nAVC (Advanced Video Coding) H264\nHigh Efficiency Dolby Digital Surround\n-------------------------------------------------\n\nIMDB &lt;a href=&quot;\nhttp://www.imdb.com/title/tt0066921/&quot; rel=&quot;nofollow&quot; target=&quot;_NEW&quot;&gt;\nhttp://www.imdb.com/title/tt0066921/&lt;/a&gt;\n\n\nA Clockwork Orange (1971) BRrip - HDrendy Dolby Surround Media Info\n\nFormat                           : MPEG-4\nFile size                        : 793 MiB\nDuration                         : 2h 16mn\nOverall bit rate                 : 812 Kbps\n\nVideo\nFormat/Info                      : Advanced Video Codec\nCodec ID/Info                    : Advanced Video Coding\nDuration                         : 2h 16mn\nBit rate mode                    : Variable\nBit rate                         : 729 Kbps\nMaximum bit rate                 : 5 037 Kbps\nWidth                            : 720 pixels\nHeight                           : 480 pixels\nDisplay aspect ratio             : 16:9\nFrame rate                       : 25.000 fps\nStandard                         : PAL\nStream size                      : 712 MiB (90%)\nLanguage                         : English\n\nAudio\nFormat/Info                      : Advanced Audio Codec\nFormat profile                   : LC\nFormat settings, SBR             : Yes\nDuration                         : 2h 16mn\nBit rate mode                    : Variable\nBit rate                         : 79.8 Kbps\nMaximum bit rate                 : 99.9 Kbps\nChannel(s)                       : 6 channels\nChannel positions                : Front: L C R, Side: L R, LFE\nSampling rate                    : 48.0 KHz\nStream size                      : 78.0 MiB (10%)\nLanguage                         : English\n","torrent":{"xt":"urn:btih:9064d9b463bca4f6a5772ff4ef0c36834cf55631","amp;dn":"A+Clockwork+Orange+%281971%29+BRrip+-+HDrendy+Dolby+Surround+%5BGreek+","amp;tr":["udp%3A%2F%2Ftracker.openbittorrent.com%3A80","udp%3A%2F%2Fopen.demonii.com%3A1337","udp%3A%2F%2Ftracker.coppersurfer.tk%3A6969","udp%3A%2F%2Fexodus.desync.com%3A6969"],"infoHash":"9064d9b463bca4f6a5772ff4ef0c36834cf55631","infoHashBuffer":{"type":"Buffer","data":[144,100,217,180,99,188,164,246,165,119,47,244,239,12,54,131,76,245,86,49]},"announce":[],"urlList":[]}}